<svg xmlns="http://www.w3.org/2000/svg" version="1.1" xmlns:xlink="http://www.w3.org/1999/xlink" xmlns:svgjs="http://svgjs.com/svgjs" width="1440" height="560" preserveAspectRatio="none" viewBox="0 0 1440 560"><g mask="url(&quot;#SvgjsMask1106&quot;)" fill="none"><rect width="1440" height="560" x="0" y="0" fill="url(#SvgjsLinearGradient1107)"></rect><path d="M812.2151764808381 197.29997866640826L679.9353957571958 264.5411763402158 787.4743310792932 337.07710410713736z" fill="rgba(28, 83, 142, 0.4)" class="triangle-float2"></path><path d="M176.1977221043392 369.76968283318234L126.9197306478134 326.9329783938031 87.30366971700747 422.26831779828143z" fill="rgba(28, 83, 142, 0.4)" class="triangle-float2"></path><path d="M941.270326974035 405.53728676577776L843.0012735415917 500.43460857640486 937.8985953522188 598.7036620088481 1036.167648784662 503.80634019822105z" fill="rgba(28, 83, 142, 0.4)" class="triangle-float3"></path><path d="M150.65387528234572 238.58864612688754L289.4986208878563 193.47525356120985 244.38522832217865 54.6305079556993 105.54048271666805 99.74390052137696z" fill="rgba(28, 83, 142, 0.4)" class="triangle-float2"></path><path d="M1137.326724198215 30.340663680654515L1061.944738029043 95.86922452776192 1127.4732988761505 171.25121069693387 1202.8552850453225 105.72264984982647z" fill="rgba(28, 83, 142, 0.4)" class="triangle-float1"></path><path d="M1367.6923656626386 385.20511476830666L1418.0322622937174 454.4920383697113 1487.319185895122 404.15214173863245 1436.9792892640432 334.8652181372278z" fill="rgba(28, 83, 142, 0.4)" class="triangle-float2"></path><path d="M81.90358895947945 119.71120561498324L-22.039015800522833 123.34096135617914-18.40926005932694 227.28356611618142 85.53334470067534 223.65381037498554z" fill="rgba(28, 83, 142, 0.4)" class="triangle-float1"></path><path d="M1304.6830143919578 162.9747136005903L1184.0262661744046 267.860024654141 1288.9115772279554 388.51677287169423 1409.5683254455084 283.6314618181435z" fill="rgba(28, 83, 142, 0.4)" class="triangle-float2"></path><path d="M873.9666485170335 218.1383032019789L839.2032702638005 357.5665978853402 978.6315649471618 392.3299761385731 1013.3949432003948 252.90168145521184z" fill="rgba(28, 83, 142, 0.4)" class="triangle-float3"></path><path d="M107.27410993800265 149.59881364235417L268.38618798686946 141.15528741613699 259.9426617606523-19.95679063272982 98.83058371178545-11.513264406512633z" fill="rgba(28, 83, 142, 0.4)" class="triangle-float3"></path><path d="M530.0257954981382 114.0240075251289L585.6286011318793 266.7914604621569 738.3960540689073 211.1886548284158 682.7932484351662 58.42120189138778z" fill="rgba(28, 83, 142, 0.4)" class="triangle-float1"></path><path d="M1275.2644803322116-82.84479151608238L1224.1819202949282 50.229827033609325 1357.2565388446199 101.31238707089275 1408.3390988819033-31.762231478798938z" fill="rgba(28, 83, 142, 0.4)" class="triangle-float3"></path><path d="M1190.2426535082495 124.18074629815564L1299.843680992883 110.72343226394777 1286.3863669586751 1.1224047793142233 1176.7853394740416 14.579718813522092z" fill="rgba(28, 83, 142, 0.4)" class="triangle-float3"></path><path d="M633.1472966865717 410.4173898062686L581.64627764998 531.7461873459575 702.9750751896688 583.2472063825493 754.4760942262607 461.9184088428604z" fill="rgba(28, 83, 142, 0.4)" class="triangle-float1"></path><path d="M187.53991834774436 325.1658908811063L141.06944887813432 399.53418775407124 261.9082152207093 371.63636035071636z" fill="rgba(28, 83, 142, 0.4)" class="triangle-float3"></path><path d="M1143.029163465999 171.33826068259805L1108.8257206122512 77.36507377431919 1049.0559765577202 205.54170353634595z" fill="rgba(28, 83, 142, 0.4)" class="triangle-float3"></path><path d="M642.4689522479202 359.3697577946927L647.9977580965981 253.8738576761586 542.501857978064 248.34505182748072 536.9730521293861 353.84095194601485z" fill="rgba(28, 83, 142, 0.4)" class="triangle-float2"></path><path d="M654.8204740701888-4.83721098617205L601.6139909493015-56.21811448297491 551.1458772645408 49.28206194675743z" fill="rgba(28, 83, 142, 0.4)" class="triangle-float3"></path></g><defs><mask id="SvgjsMask1106"><rect width="1440" height="560" fill="#ffffff"></rect></mask><linearGradient x1="15.28%" y1="-39.29%" x2="84.72%" y2="139.29%" gradientUnits="userSpaceOnUse" id="SvgjsLinearGradient1107"><stop stop-color="#0e2a47" offset="0"></stop><stop stop-color="rgba(29, 54, 89, 1)" offset="0.23"></stop><stop stop-color="rgba(29, 54, 89, 1)" offset="0.66"></stop><stop stop-color="rgba(29, 54, 89, 1)" offset="0.77"></stop><stop stop-color="rgba(29, 54, 89, 1)" offset="0.89"></stop><stop stop-color="rgba(29, 54, 89, 1)" offset="1"></stop></linearGradient><style>
            @keyframes float1 {
                0%{transform: translate(0, 0)}
                50%{transform: translate(-10px, 0)}
                100%{transform: translate(0, 0)}
            }

            .triangle-float1 {
                animation: float1 5s infinite;
            }

            @keyframes float2 {
                0%{transform: translate(0, 0)}
                50%{transform: translate(-5px, -5px)}
                100%{transform: translate(0, 0)}
            }

            .triangle-float2 {
                animation: float2 4s infinite;
            }

            @keyframes float3 {
                0%{transform: translate(0, 0)}
                50%{transform: translate(0, -10px)}
                100%{transform: translate(0, 0)}
            }

            .triangle-float3 {
                animation: float3 6s infinite;
            }
        </style></defs></svg>